HIERARCHY
ROOT Hips
{
	OFFSET 0.000000 0.000000 0.000000
	CHANNELS 6 Xposition Yposition Zposition Zrotation Yrotation Xrotation 
	JOINT LHipJoint
	{
		OFFSET 0.000000 0.000000 0.000000
		CHANNELS 3 Zrotation Yrotation Xrotation
		JOINT LeftUpLeg
		{
			OFFSET 1.363060 -1.794630 0.839290
			CHANNELS 3 Zrotation Yrotation Xrotation
			JOINT LeftLeg
			{
				OFFSET 2.448110 -6.726130 0.000000
				CHANNELS 3 Zrotation Yrotation Xrotation
				JOINT LeftFoot
				{
					OFFSET 2.562200 -7.039590 0.000000
					CHANNELS 3 Zrotation Yrotation Xrotation
					JOINT LeftToeBase
					{
						OFFSET 0.157640 -0.433110 2.322550
						CHANNELS 3 Zrotation Yrotation Xrotation
						End Site
						{
							OFFSET 0.000000 0.000000 0.000000
						}
					}
				}
			}
		}
	}
	JOINT RHipJoint
	{
		OFFSET 0.000000 0.000000 0.000000
		CHANNELS 3 Zrotation Yrotation Xrotation
		JOINT RightUpLeg
		{
			OFFSET -1.305520 -1.794630 0.839290
			CHANNELS 3 Zrotation Yrotation Xrotation
			JOINT RightLeg
			{
				OFFSET -2.542530 -6.985550 0.000000
				CHANNELS 3 Zrotation Yrotation Xrotation
				JOINT RightFoot
				{
					OFFSET -2.568260 -7.056230 0.000000
					CHANNELS 3 Zrotation Yrotation Xrotation
					JOINT RightToeBase
					{
						OFFSET -0.164730 -0.452590 2.363150
						CHANNELS 3 Zrotation Yrotation Xrotation
						End Site
						{
							OFFSET 0.000000 0.000000 0.000000
						}
					}
				}
			}
		}
	}
	JOINT LowerBack
	{
		OFFSET 0.000000 0.000000 0.000000
		CHANNELS 3 Zrotation Yrotation Xrotation
		JOINT Spine
		{
			OFFSET 0.028270 2.035590 -0.193380
			CHANNELS 3 Zrotation Yrotation Xrotation
			JOINT Spine1
			{
				OFFSET 0.056720 2.048850 -0.042750
				CHANNELS 3 Zrotation Yrotation Xrotation
				JOINT Neck
				{
					OFFSET 0.000000 0.000000 0.000000
					CHANNELS 3 Zrotation Yrotation Xrotation
					JOINT Neck1
					{
						OFFSET -0.054170 1.746240 0.172020
						CHANNELS 3 Zrotation Yrotation Xrotation
						JOINT Head
						{
							OFFSET 0.104070 1.761360 -0.123970
							CHANNELS 3 Zrotation Yrotation Xrotation
							End Site
							{
								OFFSET 0.000000 0.000000 0.000000
							}
						}
					}
				}
				JOINT LeftShoulder
				{
					OFFSET 0.000000 0.000000 0.000000
					CHANNELS 3 Zrotation Yrotation Xrotation
					JOINT LeftArm
					{
						OFFSET 3.362410 1.200890 -0.311210
						CHANNELS 3 Zrotation Yrotation Xrotation
						JOINT LeftForeArm
						{
							OFFSET 4.983000 -0.000000 -0.000000
							CHANNELS 3 Zrotation Yrotation Xrotation
							JOINT LeftHand
							{
								OFFSET 3.483560 -0.000000 -0.000000
								CHANNELS 3 Zrotation Yrotation Xrotation
								JOINT LeftFingerBase
								{
									OFFSET 0.000000 0.000000 0.000000
									CHANNELS 3 Zrotation Yrotation Xrotation
									JOINT LeftHandIndex1
									{
										OFFSET 0.715260 -0.000000 -0.000000
										CHANNELS 3 Zrotation Yrotation Xrotation
										End Site
										{
											OFFSET 0.000000 0.000000 0.000000
										}
									}
								}
								JOINT LThumb
								{
									OFFSET 0.000000 0.000000 0.000000
									CHANNELS 3 Zrotation Yrotation Xrotation
									End Site
									{
										OFFSET 0.000000 0.000000 0.000000
									}
								}
							}
						}
					}
				}
				JOINT RightShoulder
				{
					OFFSET 0.000000 0.000000 0.000000
					CHANNELS 3 Zrotation Yrotation Xrotation
					JOINT RightArm
					{
						OFFSET -3.136600 1.374050 -0.404650
						CHANNELS 3 Zrotation Yrotation Xrotation
						JOINT RightForeArm
						{
							OFFSET -5.241900 -0.000000 -0.000000
							CHANNELS 3 Zrotation Yrotation Xrotation
							JOINT RightHand
							{
								OFFSET -3.444170 -0.000000 -0.000000
								CHANNELS 3 Zrotation Yrotation Xrotation
								JOINT RightFingerBase
								{
									OFFSET 0.000000 0.000000 0.000000
									CHANNELS 3 Zrotation Yrotation Xrotation
									JOINT RightHandIndex1
									{
										OFFSET -0.622530 -0.000000 -0.000000
										CHANNELS 3 Zrotation Yrotation Xrotation
										End Site
										{
											OFFSET 0.000000 0.000000 0.000000
										}
									}
								}
								JOINT RThumb
								{
									OFFSET 0.000000 0.000000 0.000000
									CHANNELS 3 Zrotation Yrotation Xrotation
									End Site
									{
										OFFSET 0.000000 0.000000 0.000000
									}
								}
							}
						}
					}
				}
			}
		}
	}
}
MOTION
Frames: 9
Frame Time: 0.008333
10.367294 16.110501 2.432732 -173.786605 -85.463584 -173.956693 -11.873418 5.980234 -0.028838 -3.553127 12.588408 1.288267 -0.379892 2.431337 36.375935 0.924823 0.601443 16.022704 -0.187800 0.000000 -84.596000 8.430903 0.027922 4.386442 11.585724 7.213704 -50.793983 1.441901 -2.342846 36.524397 -0.971306 -3.545520 -2.717077 -0.896200 0.000000 -23.723900 11.072947 -6.540391 -5.146296 2.712990 -7.326293 -3.986896 -2.638308 -7.501148 0.898016 8.088878 -20.230083 -9.701202 -0.714501 -0.020964 -0.489312 0.000000 0.000000 0.000000 10.984721 1.023603 -1.959941 -29.794134 -33.994840 -12.413071 -0.879443 -81.333425 -0.119344 9.445765 -1.903132 -0.216384 0.027782 0.721066 -0.000000 0.000000 0.000000 0.000000 0.000000 0.000000 0.000000 4.036301 -20.194524 3.051047 44.121238 -24.290229 -44.756748 2.614133 27.455524 -0.007561 -5.190902 1.667717 -0.084603 0.172077 -0.145538 -0.000000 0.000000 0.000000 0.000000 0.000000 0.000000 0.000000 
10.173086 16.048890 2.413432 -166.443148 -85.819973 178.537720 -11.891762 5.746040 -0.141493 -2.606497 13.289869 0.178295 -0.108317 2.463440 39.397502 1.068283 1.092379 17.310729 -0.067499 -0.000000 -81.570900 8.487907 -0.177542 4.310915 12.276474 7.001461 -51.485036 1.373475 -2.692089 39.563782 -0.950252 -3.101324 -4.040761 -0.681500 0.000001 -21.683100 11.715385 -6.560533 -4.984876 2.812531 -7.391872 -3.968254 -2.829907 -7.569013 0.841519 8.359713 -20.105934 -9.827884 -0.849715 -0.030383 -0.526530 0.000000 0.000000 0.000000 10.684774 0.928414 -1.857075 -30.809749 -33.478925 -11.711106 -0.942741 -82.051627 -0.119536 9.572006 -1.754478 -0.206611 0.017264 0.717162 -0.000000 0.000000 0.000000 0.000000 0.000000 0.000000 0.000000 4.725512 -20.115855 3.061121 44.572753 -23.479743 -44.370916 2.645423 27.376634 -0.007670 -5.074414 1.376587 -0.069113 0.167784 -0.138816 -0.000000 0.000000 0.000000 0.000000 0.000000 0.000000 0.000000 
9.986803 15.984279 2.393923 -158.787413 -86.207824 170.649721 -12.008986 5.436367 -0.287708 -1.638365 13.963496 -0.912877 0.174739 2.473217 42.518156 1.231458 1.939772 18.295329 0.210600 0.000000 -77.642900 8.449384 -0.440724 4.197600 12.979219 6.739206 -52.010376 1.335019 -3.025830 42.493516 -0.933965 -2.647075 -5.648829 -0.468500 0.000000 -19.512100 12.243003 -6.609678 -4.739683 2.882723 -7.474356 -3.933432 -3.052272 -7.656750 0.766265 8.694134 -19.933467 -9.954002 -1.003188 -0.041288 -0.564784 0.000000 0.000000 0.000000 10.325799 0.762300 -1.734878 -31.697608 -32.993553 -11.016945 -0.993938 -82.714131 -0.119884 9.710915 -1.617728 -0.197736 0.005630 0.713255 -0.000000 0.000000 0.000000 0.000000 0.000000 0.000000 0.000000 5.530063 -20.001571 3.074310 45.075370 -22.630952 -43.966049 2.675835 27.282428 -0.007508 -4.959885 1.172061 -0.058022 0.162829 -0.131805 -0.000000 0.000000 0.000000 0.000000 0.000000 0.000000 0.000000 
9.808326 15.917688 2.374225 -150.773605 -86.589350 162.338838 -12.236144 5.074952 -0.460917 -0.659376 14.586641 -1.981309 0.453164 2.476220 45.703051 1.411356 3.151428 18.893616 0.655400 0.000001 -72.961300 8.309758 -0.741089 4.042293 13.699854 6.440638 -52.326012 1.318391 -3.330193 45.248188 -0.931761 -2.236495 -7.471612 -0.271800 -0.000001 -17.240600 12.651344 -6.672407 -4.413657 2.920468 -7.557645 -3.883612 -3.306724 -7.748135 0.671239 9.080702 -19.705972 -10.066258 -1.176715 -0.054043 -0.600446 0.000000 0.000000 0.000000 9.897553 0.509687 -1.594037 -32.462667 -32.515473 -10.325191 -1.033168 -83.328911 -0.120325 9.852977 -1.514053 -0.191461 -0.006816 0.709472 -0.000000 0.000000 0.000000 0.000000 0.000000 0.000000 0.000000 6.439945 -19.841739 3.090809 45.627214 -21.737367 -43.567975 2.701762 27.135135 -0.007110 -4.893932 1.087497 -0.053230 0.157192 -0.124651 -0.000000 0.000000 0.000000 0.000000 0.000000 0.000000 0.000000 
9.637334 15.850224 2.354082 -142.657680 -86.917961 153.872486 -12.559867 4.696266 -0.654258 0.303233 15.136573 -3.029366 0.709419 2.495357 48.914161 1.603641 4.698332 19.043402 1.246699 -0.000000 -67.733000 8.085289 -1.041830 3.842637 14.430371 6.120362 -52.408545 1.311577 -3.591238 47.783503 -0.950980 -1.912506 -9.418393 -0.095700 0.000000 -15.070500 12.943697 -6.729638 -4.011813 2.923280 -7.622934 -3.820379 -3.594499 -7.823273 0.555760 9.509287 -19.415630 -10.150387 -1.371825 -0.068980 -0.629470 0.000000 0.000000 0.000000 9.399176 0.160544 -1.436915 -33.122594 -32.016609 -9.627128 -1.059980 -83.900624 -0.120663 9.988996 -1.461659 -0.189289 -0.019751 0.705808 -0.000000 0.000000 0.000000 0.000000 0.000000 0.000000 0.000000 7.447436 -19.624344 3.110192 46.221833 -20.792439 -43.190400 2.720449 26.889877 -0.006530 -4.926080 1.150637 -0.055939 0.150848 -0.117411 -0.000000 0.000000 0.000000 0.000000 0.000000 0.000000 0.000000 
9.473170 15.783111 2.333585 -134.543522 -87.168723 145.369341 -12.954858 4.324036 -0.859594 1.241709 15.593781 -4.070301 0.936063 2.548592 52.123240 1.802398 6.504554 18.712103 1.929000 0.000001 -62.213100 7.797989 -1.319439 3.604621 15.174592 5.797358 -52.255266 1.308337 -3.802165 50.066216 -0.998646 -1.711237 -11.416558 0.064900 0.000000 -13.021100 13.152217 -6.768909 -3.548787 2.896704 -7.660603 -3.748023 -3.913014 -7.871430 0.419790 9.961465 -19.056192 -10.192354 -1.587833 -0.086231 -0.647767 0.000000 0.000000 0.000000 8.828401 -0.293328 -1.265822 -33.710539 -31.467294 -8.915174 -1.075309 -84.427938 -0.120868 10.112220 -1.478005 -0.192822 -0.032811 0.702308 -0.000000 0.000000 0.000000 0.000000 0.000000 0.000000 0.000000 8.528525 -19.342536 3.132849 46.855160 -19.782132 -42.855602 2.728620 26.496085 -0.005843 -5.096378 1.372912 -0.067650 0.143646 -0.110159 -0.000000 0.000000 0.000000 0.000000 0.000000 0.000000 0.000000 
9.315067 15.717599 2.312380 -126.797784 -87.329708 137.214419 -13.379119 3.980252 -1.067150 2.124710 15.932354 -5.123907 1.131556 2.649984 55.304655 2.001341 8.472127 17.902726 2.627500 -0.000000 -56.654500 7.485648 -1.550819 3.337364 15.914478 5.479891 -51.891570 1.301571 -3.961830 52.085016 -1.076395 -1.651742 -13.380378 0.219500 -0.000000 -11.333000 13.299691 -6.782781 -3.045373 2.845028 -7.666182 -3.671332 -4.258934 -7.886621 0.264724 10.425023 -18.621102 -10.180256 -1.823746 -0.105827 -0.651590 0.000000 0.000000 0.000000 8.192662 -0.850534 -1.083797 -34.267115 -30.843974 -8.177312 -1.079280 -84.898872 -0.120821 10.220580 -1.572641 -0.203159 -0.045753 0.698825 -0.000000 0.000000 0.000000 0.000000 0.000000 0.000000 0.000000 9.669482 -18.991796 3.157367 47.515067 -18.696636 -42.563343 2.724533 25.906814 -0.005139 -5.439189 1.750668 -0.089965 0.135428 -0.102846 -0.000000 0.000000 0.000000 0.000000 0.000000 0.000000 0.000000 
9.161824 15.654900 2.290702 -119.501366 -87.405530 129.509829 -13.806631 3.670547 -1.265850 2.943014 16.136029 -6.216894 1.303684 2.801650 58.442305 2.193865 10.479863 16.649157 3.255400 0.000001 -51.283000 7.168840 -1.736164 3.055241 16.648280 5.181626 -51.354076 1.290599 -4.075470 53.837993 -1.184245 -1.742062 -15.260087 0.380299 -0.000000 -9.962100 13.417691 -6.771486 -2.528692 2.777440 -7.643697 -3.596526 -4.623637 -7.872345 0.093716 10.880754 -18.109201 -10.105694 -2.075415 -0.127457 -0.638252 0.000000 0.000000 0.000000 7.498258 -1.505688 -0.893503 -34.848117 -30.125510 -7.405985 -1.073714 -85.292635 -0.120478 10.316596 -1.753274 -0.221300 -0.058353 0.695256 -0.000000 0.000000 0.000000 0.000000 0.000000 0.000000 0.000000 10.839014 -18.576234 3.184004 48.193825 -17.513492 -42.320753 2.705826 25.074159 -0.004535 -5.969983 2.260632 -0.125286 0.125924 -0.095545 -0.000000 0.000000 0.000000 0.000000 0.000000 0.000000 0.000000 
9.012618 15.596180 2.268301 -112.863362 -87.411783 122.483075 -14.209210 3.399096 -1.444263 3.660955 16.186411 -7.379713 1.461456 3.000054 61.522709 2.373992 12.418644 15.010430 3.739200 -0.000000 -46.248401 6.872672 -1.874882 2.772388 17.351997 4.906662 -50.698706 1.272771 -4.150930 55.342973 -1.316657 -1.970955 -17.002798 0.555300 0.000001 -9.033700 13.513348 -6.738845 -2.027878 2.698537 -7.599560 -3.528908 -4.998326 -7.834380 -0.088342 11.319253 -17.518045 -9.965073 -2.338973 -0.150716 -0.606273 0.000000 0.000000 0.000000 6.758214 -2.237628 -0.697576 -35.503804 -29.306559 -6.591640 -1.059622 -85.573815 -0.119826 10.408625 -2.016361 -0.247146 -0.070560 0.691250 -0.000000 0.000000 0.000000 0.000000 0.000000 0.000000 0.000000 12.023305 -18.098599 3.210683 48.875869 -16.219575 -42.108414 2.672202 23.968419 -0.004166 -6.690822 2.860528 -0.175212 0.114972 -0.088325 -0.000000 0.000000 0.000000 0.000000 0.000000 0.000000 0.000000 
